<svg width="20" height="22" viewBox="0 0 20 22" fill="none" xmlns="http://www.w3.org/2000/svg">
<path d="M10 12V1L18 5L10 9" stroke="currentColor" stroke-width="2" stroke-linecap="round" stroke-linejoin="round"/>
<path d="M18.561 9.222C19.093 10.862 19.143 12.621 18.704 14.288C18.266 15.956 17.357 17.463 16.087 18.629C14.817 19.795 13.239 20.572 11.54 20.867C9.84105 21.162 8.0931 20.963 6.5041 20.293C4.9151 19.623 3.55209 18.511 2.57709 17.089C1.60209 15.667 1.0561 13.995 1.0041 12.271C0.952096 10.548 1.39606 8.845 2.28406 7.367C3.17106 5.889 4.46505 4.69601 6.01105 3.93201" stroke="currentColor" stroke-width="2" stroke-linecap="round" stroke-linejoin="round"/>
<path d="M6.00099 8.99699C5.49999 9.66399 5.17402 10.446 5.05202 11.271C4.93102 12.097 5.01801 12.939 5.30501 13.723C5.59201 14.506 6.07101 15.205 6.69801 15.755C7.32401 16.306 8.07904 16.692 8.89204 16.876C9.70604 17.061 10.553 17.039 11.356 16.813C12.159 16.586 12.892 16.163 13.49 15.58C14.087 14.998 14.529 14.275 14.776 13.478C15.022 12.681 15.065 11.835 14.901 11.017" stroke="currentColor" stroke-width="2" stroke-linecap="round" stroke-linejoin="round"/>
</svg>
