<svg width="23" height="23" viewBox="0 0 23 23" fill="none" xmlns="http://www.w3.org/2000/svg">
<path d="M1.58997 17.414C1.20997 17.789 1 18.298 1 18.828V21C1 21.265 1.11004 21.52 1.29004 21.707C1.48004 21.895 1.73 22 2 22H5C5.27 22 5.51996 21.895 5.70996 21.707C5.88996 21.52 6 21.265 6 21V20C6 19.735 6.11004 19.481 6.29004 19.293C6.48004 19.106 6.73 19 7 19H8C8.27 19 8.51996 18.895 8.70996 18.707C8.88996 18.52 9 18.265 9 18V17C9 16.735 9.11004 16.481 9.29004 16.293C9.48004 16.106 9.73 16 10 16H10.17C10.7 16 11.21 15.789 11.59 15.414L12.4 14.6C13.79 15.084 15.2999 15.082 16.6899 14.595C18.0799 14.107 19.26 13.163 20.04 11.916C20.83 10.67 21.16 9.19399 21 7.73199C20.83 6.26899 20.18 4.90599 19.13 3.86599C18.09 2.82499 16.73 2.168 15.27 2.003C13.81 1.838 12.33 2.174 11.08 2.956C9.83996 3.738 8.89003 4.92 8.41003 6.309C7.92003 7.697 7.92002 9.21 8.40002 10.6L1.58997 17.414Z" stroke="currentColor" stroke-width="2" stroke-linecap="round" stroke-linejoin="round"/>
<path d="M15.5 8C15.78 8 16 7.776 16 7.5C16 7.224 15.78 7 15.5 7C15.22 7 15 7.224 15 7.5C15 7.776 15.22 8 15.5 8Z" fill="currentColor" stroke="currentColor" stroke-width="2" stroke-linecap="round" stroke-linejoin="round"/>
</svg>
