<svg width="22" height="20" viewBox="0 0 22 20" fill="none" xmlns="http://www.w3.org/2000/svg">
<path d="M17 19C17 16.878 16.157 14.843 14.657 13.343C13.157 11.843 11.122 11 9 11C6.878 11 4.84299 11.843 3.34299 13.343C1.84299 14.843 1 16.878 1 19" stroke="currentColor" stroke-width="2" stroke-linecap="round" stroke-linejoin="round"/>
<path d="M9 11C11.761 11 14 8.761 14 6C14 3.239 11.761 1 9 1C6.239 1 4 3.239 4 6C4 8.761 6.239 11 9 11Z" stroke="currentColor" stroke-width="2" stroke-linecap="round" stroke-linejoin="round"/>
<path d="M21.0001 18C21.0001 14.63 19.0001 11.5 17.0001 10C17.6571 9.507 18.1831 8.859 18.5301 8.114C18.8781 7.37 19.0361 6.551 18.9921 5.73C18.9471 4.909 18.7011 4.112 18.2751 3.409C17.8491 2.707 17.257 2.119 16.55 1.7" stroke="currentColor" stroke-width="2" stroke-linecap="round" stroke-linejoin="round"/>
</svg>
