<svg width="0" height="0" style="position:absolute"><symbol fill="none" viewBox="0 0 22 22" id="building" xmlns="http://www.w3.org/2000/svg"><path d="M5 21V3a2 2 0 0 1 2-2h8a2 2 0 0 1 2 2v18M5 21h12M5 21H3a2 2 0 0 1-2-2v-6a2 2 0 0 1 2-2h2m12 10h2a2 2 0 0 0 2-2v-9a2 2 0 0 0-2-2h-2M9 5h4M9 9h4m-4 4h4m-4 4h4" stroke="currentColor" stroke-width="2" stroke-linecap="round" stroke-linejoin="round"/></symbol><symbol fill="none" viewBox="0 0 20 22" id="data" xmlns="http://www.w3.org/2000/svg"><path d="M10 7c4.971 0 9-1.343 9-3s-4.029-3-9-3-9 1.343-9 3 4.029 3 9 3Z" stroke="currentColor" stroke-width="2" stroke-linecap="round" stroke-linejoin="round"/><path d="M1 4v14c0 .796.948 1.559 2.636 2.121C5.324 20.684 7.613 21 10 21s4.676-.316 6.364-.879C18.052 19.559 19 18.796 19 18V4" stroke="currentColor" stroke-width="2" stroke-linecap="round" stroke-linejoin="round"/><path d="M1 11c0 .796.948 1.559 2.636 2.121C5.324 13.684 7.613 14 10 14s4.676-.316 6.364-.879C18.052 12.559 19 11.796 19 11" stroke="currentColor" stroke-width="2" stroke-linecap="round" stroke-linejoin="round"/></symbol><symbol fill="none" viewBox="0 0 18 22" id="file" xmlns="http://www.w3.org/2000/svg"><path d="m7 17 3-3-3-3m4-10v4a2 2 0 0 0 2 2h4" stroke="currentColor" stroke-width="2" stroke-linecap="round" stroke-linejoin="round"/><path d="M1 10V3a2 2 0 0 1 2-2h9l5 5v13a2 2 0 0 1-2 2H3a2 2 0 0 1-2-2v-3a2 2 0 0 1 2-2h7" stroke="currentColor" stroke-width="2" stroke-linecap="round" stroke-linejoin="round"/></symbol><symbol fill="none" viewBox="0 0 20 22" id="goal" xmlns="http://www.w3.org/2000/svg"><path d="M10 12V1l8 4-8 4" stroke="currentColor" stroke-width="2" stroke-linecap="round" stroke-linejoin="round"/><path d="M18.561 9.222a8.996 8.996 0 0 1-2.474 9.407A9 9 0 1 1 6.011 3.932" stroke="currentColor" stroke-width="2" stroke-linecap="round" stroke-linejoin="round"/><path d="M6.001 8.997a5.006 5.006 0 0 0-.696 4.726 4.986 4.986 0 0 0 1.393 2.032 5.002 5.002 0 0 0 8.078-2.277 5.007 5.007 0 0 0 .125-2.461" stroke="currentColor" stroke-width="2" stroke-linecap="round" stroke-linejoin="round"/></symbol><symbol fill="none" viewBox="0 0 20 21" id="home" xmlns="http://www.w3.org/2000/svg"><path d="M13 20v-8a.997.997 0 0 0-1-1H8a.997.997 0 0 0-1 1v8" stroke="currentColor" stroke-width="2" stroke-linecap="round" stroke-linejoin="round"/><path d="M1 9a1.992 1.992 0 0 1 .709-1.528l7-5.999a2 2 0 0 1 2.582 0l7 5.999A1.998 1.998 0 0 1 19 9v9a2 2 0 0 1-2 2H3a2 2 0 0 1-2-2V9Z" stroke="currentColor" stroke-width="2" stroke-linecap="round" stroke-linejoin="round"/></symbol><symbol fill="none" viewBox="0 0 23 23" id="key" xmlns="http://www.w3.org/2000/svg"><path d="M1.59 17.414c-.38.375-.59.884-.59 1.414V21c0 .265.11.52.29.707A1 1 0 0 0 2 22h3a1 1 0 0 0 .71-.293c.18-.187.29-.442.29-.707v-1c0-.265.11-.519.29-.707.19-.187.44-.293.71-.293h1a1 1 0 0 0 .71-.293c.18-.187.29-.442.29-.707v-1c0-.265.11-.519.29-.707.19-.187.44-.293.71-.293h.17c.53 0 1.04-.211 1.42-.586l.81-.814a6.5 6.5 0 0 0 4.29-.005 6.481 6.481 0 0 0 3.35-2.679A6.488 6.488 0 0 0 21 7.732a6.48 6.48 0 0 0-1.87-3.866 6.485 6.485 0 0 0-3.86-1.863 6.478 6.478 0 0 0-6.86 4.306A6.51 6.51 0 0 0 8.4 10.6l-6.81 6.814Z" stroke="currentColor" stroke-width="2" stroke-linecap="round" stroke-linejoin="round"/><path d="M15.5 8c.28 0 .5-.224.5-.5s-.22-.5-.5-.5-.5.224-.5.5.22.5.5.5Z" fill="currentColor" stroke="currentColor" stroke-width="2" stroke-linecap="round" stroke-linejoin="round"/></symbol><symbol fill="none" viewBox="0 0 22 20" id="people" xmlns="http://www.w3.org/2000/svg"><path d="M17 19a8 8 0 1 0-16 0" stroke="currentColor" stroke-width="2" stroke-linecap="round" stroke-linejoin="round"/><path d="M9 11A5 5 0 1 0 8.999.999 5 5 0 0 0 9 11ZM21 18c0-3.37-2-6.5-4-8a4.996 4.996 0 0 0 1.992-4.27A5.007 5.007 0 0 0 16.55 1.7" stroke="currentColor" stroke-width="2" stroke-linecap="round" stroke-linejoin="round"/></symbol><symbol fill="none" viewBox="0 0 22 22" id="warning" xmlns="http://www.w3.org/2000/svg"><path d="M11 21c5.52 0 10-4.477 10-10S16.52 1 11 1 1 5.477 1 11s4.48 10 10 10ZM11 7v4m0 4h.01" stroke="#FDD261" stroke-width="1.5" stroke-linecap="round" stroke-linejoin="round"/></symbol></svg>