<svg width="0" height="0" style="position:absolute"><symbol fill="none" viewBox="0 0 30 30" id="arrow-down" xmlns="http://www.w3.org/2000/svg"><path d="M15 28.33c7.36 0 13.33-5.97 13.33-13.33S22.36 1.67 15 1.67 1.67 7.64 1.67 15 7.64 28.33 15 28.33ZM15 9.67v10.66m0 0L9.67 15M15 20.33 20.33 15" stroke="#FDD261" stroke-width="2" stroke-linecap="round" stroke-linejoin="round"/></symbol><symbol fill="none" viewBox="0 0 30 30" id="arrow-up" xmlns="http://www.w3.org/2000/svg"><path d="M15 1.67C7.636 1.67 1.666 7.64 1.666 15S7.636 28.33 15 28.33c7.363 0 13.333-5.97 13.333-13.33S22.363 1.67 15 1.67ZM15 20.33V9.67m0 0L20.333 15M15 9.67 9.666 15" stroke="#3BB979" stroke-width="2" stroke-linecap="round" stroke-linejoin="round"/></symbol><symbol fill="none" viewBox="0 0 30 29" id="boat" xmlns="http://www.w3.org/2000/svg"><path d="M24.839 25.5a15.467 15.467 0 0 0 2.16-8l-10.917-4.852a2.676 2.676 0 0 0-2.166 0L2.999 17.5a15.466 15.466 0 0 0 3.747 10.347" stroke="#3B82F6" stroke-width="1.5" stroke-linecap="round" stroke-linejoin="round"/><path d="M14.999 12.419V17.5m0-16v4m9.334 10.667v-8A2.666 2.666 0 0 0 21.666 5.5H8.333a2.666 2.666 0 0 0-2.667 2.667v8M1.666 26.833c.8.667 1.6 1.334 3.333 1.334 3.334 0 3.334-2.667 6.667-2.667 1.733 0 2.533.667 3.333 1.333.8.667 1.6 1.334 3.334 1.334 3.333 0 3.333-2.667 6.666-2.667 1.734 0 2.534.667 3.334 1.333" stroke="#3B82F6" stroke-width="1.5" stroke-linecap="round" stroke-linejoin="round"/></symbol><symbol fill="none" viewBox="0 0 22 22" id="building" xmlns="http://www.w3.org/2000/svg"><path d="M5 21V3a2 2 0 0 1 2-2h8a2 2 0 0 1 2 2v18M5 21h12M5 21H3a2 2 0 0 1-2-2v-6a2 2 0 0 1 2-2h2m12 10h2a2 2 0 0 0 2-2v-9a2 2 0 0 0-2-2h-2M9 5h4M9 9h4m-4 4h4m-4 4h4" stroke="currentColor" stroke-width="2" stroke-linecap="round" stroke-linejoin="round"/></symbol><symbol fill="none" viewBox="0 0 36 36" id="check" xmlns="http://www.w3.org/2000/svg"><path d="M18 34.67c9.204 0 16.666-7.47 16.666-16.67 0-9.2-7.462-16.67-16.666-16.67C8.795 1.33 1.333 8.8 1.333 18c0 9.2 7.462 16.67 16.667 16.67Z" stroke="#3BB979" stroke-width="2" stroke-linecap="round" stroke-linejoin="round"/><path d="m13 18 3.333 3.33L23 14.67" stroke="#3BB979" stroke-width="2" stroke-linecap="round" stroke-linejoin="round"/></symbol><symbol fill="none" viewBox="0 0 36 36" id="check-gray" xmlns="http://www.w3.org/2000/svg"><path d="M18 34.67c9.2 0 16.67-7.47 16.67-16.67C34.67 8.8 27.2 1.33 18 1.33 8.795 1.33 1.333 8.8 1.333 18c0 9.2 7.462 16.67 16.667 16.67Z" stroke="#8A8B98" stroke-width="2" stroke-linecap="round" stroke-linejoin="round" stroke-dasharray="4 4"/><path d="m13 18 3.333 3.33L23 14.67" stroke="#8A8B98" stroke-width="2" stroke-linecap="round" stroke-linejoin="round"/></symbol><symbol fill="none" viewBox="0 0 20 22" id="data" xmlns="http://www.w3.org/2000/svg"><path d="M10 7c4.971 0 9-1.343 9-3s-4.029-3-9-3-9 1.343-9 3 4.029 3 9 3Z" stroke="currentColor" stroke-width="2" stroke-linecap="round" stroke-linejoin="round"/><path d="M1 4v14c0 .796.948 1.559 2.636 2.121C5.324 20.684 7.613 21 10 21s4.676-.316 6.364-.879C18.052 19.559 19 18.796 19 18V4" stroke="currentColor" stroke-width="2" stroke-linecap="round" stroke-linejoin="round"/><path d="M1 11c0 .796.948 1.559 2.636 2.121C5.324 13.684 7.613 14 10 14s4.676-.316 6.364-.879C18.052 12.559 19 11.796 19 11" stroke="currentColor" stroke-width="2" stroke-linecap="round" stroke-linejoin="round"/></symbol><symbol fill="none" viewBox="0 0 18 22" id="file" xmlns="http://www.w3.org/2000/svg"><path d="m7 17 3-3-3-3m4-10v4a2 2 0 0 0 2 2h4" stroke="currentColor" stroke-width="2" stroke-linecap="round" stroke-linejoin="round"/><path d="M1 10V3a2 2 0 0 1 2-2h9l5 5v13a2 2 0 0 1-2 2H3a2 2 0 0 1-2-2v-3a2 2 0 0 1 2-2h7" stroke="currentColor" stroke-width="2" stroke-linecap="round" stroke-linejoin="round"/></symbol><symbol fill="none" viewBox="0 0 20 22" id="goal" xmlns="http://www.w3.org/2000/svg"><path d="M10 12V1l8 4-8 4" stroke="currentColor" stroke-width="2" stroke-linecap="round" stroke-linejoin="round"/><path d="M18.561 9.222a8.996 8.996 0 0 1-2.474 9.407A9 9 0 1 1 6.011 3.932" stroke="currentColor" stroke-width="2" stroke-linecap="round" stroke-linejoin="round"/><path d="M6.001 8.997a5.006 5.006 0 0 0-.696 4.726 4.986 4.986 0 0 0 1.393 2.032 5.002 5.002 0 0 0 8.078-2.277 5.007 5.007 0 0 0 .125-2.461" stroke="currentColor" stroke-width="2" stroke-linecap="round" stroke-linejoin="round"/></symbol><symbol fill="none" viewBox="0 0 20 21" id="home" xmlns="http://www.w3.org/2000/svg"><path d="M13 20v-8a.997.997 0 0 0-1-1H8a.997.997 0 0 0-1 1v8" stroke="currentColor" stroke-width="2" stroke-linecap="round" stroke-linejoin="round"/><path d="M1 9a1.992 1.992 0 0 1 .709-1.528l7-5.999a2 2 0 0 1 2.582 0l7 5.999A1.998 1.998 0 0 1 19 9v9a2 2 0 0 1-2 2H3a2 2 0 0 1-2-2V9Z" stroke="currentColor" stroke-width="2" stroke-linecap="round" stroke-linejoin="round"/></symbol><symbol fill="none" viewBox="0 0 23 23" id="key" xmlns="http://www.w3.org/2000/svg"><path d="M1.59 17.414c-.38.375-.59.884-.59 1.414V21c0 .265.11.52.29.707A1 1 0 0 0 2 22h3a1 1 0 0 0 .71-.293c.18-.187.29-.442.29-.707v-1c0-.265.11-.519.29-.707.19-.187.44-.293.71-.293h1a1 1 0 0 0 .71-.293c.18-.187.29-.442.29-.707v-1c0-.265.11-.519.29-.707.19-.187.44-.293.71-.293h.17c.53 0 1.04-.211 1.42-.586l.81-.814a6.5 6.5 0 0 0 4.29-.005 6.481 6.481 0 0 0 3.35-2.679A6.488 6.488 0 0 0 21 7.732a6.48 6.48 0 0 0-1.87-3.866 6.485 6.485 0 0 0-3.86-1.863 6.478 6.478 0 0 0-6.86 4.306A6.51 6.51 0 0 0 8.4 10.6l-6.81 6.814Z" stroke="currentColor" stroke-width="2" stroke-linecap="round" stroke-linejoin="round"/><path d="M15.5 8c.28 0 .5-.224.5-.5s-.22-.5-.5-.5-.5.224-.5.5.22.5.5.5Z" fill="currentColor" stroke="currentColor" stroke-width="2" stroke-linecap="round" stroke-linejoin="round"/></symbol><symbol fill="none" viewBox="0 0 22 20" id="people" xmlns="http://www.w3.org/2000/svg"><path d="M17 19a8 8 0 1 0-16 0" stroke="currentColor" stroke-width="2" stroke-linecap="round" stroke-linejoin="round"/><path d="M9 11A5 5 0 1 0 8.999.999 5 5 0 0 0 9 11ZM21 18c0-3.37-2-6.5-4-8a4.996 4.996 0 0 0 1.992-4.27A5.007 5.007 0 0 0 16.55 1.7" stroke="currentColor" stroke-width="2" stroke-linecap="round" stroke-linejoin="round"/></symbol><symbol fill="none" viewBox="0 0 29 29" id="roket" xmlns="http://www.w3.org/2000/svg"><path d="M4 21c-2 1.68-2.667 6.67-2.667 6.67S6.32 27 8 25c.946-1.12.933-2.84-.12-3.88A2.918 2.918 0 0 0 4 21Zm10-2-4-4a29.352 29.352 0 0 1 2.666-5.27 17.192 17.192 0 0 1 6.284-5.94 17.172 17.172 0 0 1 8.383-2.12c0 3.62-1.04 10-8 14.66A29.598 29.598 0 0 1 14 19Z" stroke="#3BB979" stroke-width="2" stroke-linecap="round" stroke-linejoin="round"/><path d="M10 15H3.333S4.066 10.96 6 9.67c2.16-1.44 6.666 0 6.666 0M14 19v6.67s4.04-.74 5.333-2.67c1.44-2.16 0-6.67 0-6.67" stroke="#3BB979" stroke-width="2" stroke-linecap="round" stroke-linejoin="round"/></symbol><symbol fill="none" viewBox="0 0 24 29" id="secure" xmlns="http://www.w3.org/2000/svg"><path d="M22.666 15.833c0 6.667-4.666 10-10.213 11.934-.29.098-.606.093-.893-.014C6 25.833 1.333 22.5 1.333 15.833V6.5a1.33 1.33 0 0 1 1.333-1.333c2.667 0 6-1.6 8.32-3.627a1.564 1.564 0 0 1 2.027 0c2.333 2.04 5.653 3.627 8.32 3.627A1.333 1.333 0 0 1 22.666 6.5v9.333Z" stroke="#3BB979" stroke-width="1.5" stroke-linecap="round" stroke-linejoin="round"/><path d="m8 14.5 2.667 2.667L16 11.833" stroke="#3BB979" stroke-width="1.5" stroke-linecap="round" stroke-linejoin="round"/></symbol><symbol fill="none" viewBox="0 0 24 29" id="secure-people" xmlns="http://www.w3.org/2000/svg"><path d="M22.666 15.833c0 6.667-4.666 10-10.213 11.934-.29.098-.606.093-.893-.014C6 25.833 1.333 22.5 1.333 15.833V6.5a1.33 1.33 0 0 1 1.333-1.333c2.667 0 6-1.6 8.32-3.627a1.564 1.564 0 0 1 2.027 0c2.333 2.04 5.653 3.627 8.32 3.627A1.333 1.333 0 0 1 22.666 6.5v9.333Z" stroke="#6A3BF6" stroke-width="1.5" stroke-linecap="round" stroke-linejoin="round"/><path d="M4.501 23.713a8.008 8.008 0 0 1 2.933-3.782 8.01 8.01 0 0 1 4.568-1.43 7.996 7.996 0 0 1 7.498 5.216" stroke="#6A3BF6" stroke-width="1.5" stroke-linecap="round" stroke-linejoin="round"/><path d="M11.999 18.5a5.334 5.334 0 1 0 0-10.667A5.334 5.334 0 0 0 12 18.5Z" stroke="#6A3BF6" stroke-width="1.5" stroke-linecap="round" stroke-linejoin="round"/></symbol><symbol fill="none" viewBox="0 0 22 23" id="umbrella" xmlns="http://www.w3.org/2000/svg"><path d="M11 11.5v8c0 .53.21 1.039.59 1.414.37.375.88.586 1.41.586.53 0 1.04-.211 1.41-.586.38-.375.59-.884.59-1.414m-4-18v1m10 9a10.043 10.043 0 0 0-3.29-6.394A10.035 10.035 0 0 0 11 2.537c-2.48 0-4.87.915-6.71 2.569A10.043 10.043 0 0 0 1 11.5h20Z" stroke="#B93B3B" stroke-width="2" stroke-linecap="round" stroke-linejoin="round"/></symbol><symbol fill="none" viewBox="0 0 22 22" id="warning" xmlns="http://www.w3.org/2000/svg"><path d="M11 21c5.52 0 10-4.477 10-10S16.52 1 11 1 1 5.477 1 11s4.48 10 10 10ZM11 7v4m0 4h.01" stroke="#FDD261" stroke-width="1.5" stroke-linecap="round" stroke-linejoin="round"/></symbol></svg>